<?xml version="1.0" encoding="UTF-8" standalone="no"?>
<svg
   xmlns:dc="http://purl.org/dc/elements/1.1/"
   xmlns:cc="http://creativecommons.org/ns#"
   xmlns:rdf="http://www.w3.org/1999/02/22-rdf-syntax-ns#"
   xmlns:svg="http://www.w3.org/2000/svg"
   xmlns="http://www.w3.org/2000/svg"
   xmlns:sodipodi="http://sodipodi.sourceforge.net/DTD/sodipodi-0.dtd"
   xmlns:inkscape="http://www.inkscape.org/namespaces/inkscape"
   preserveAspectRatio="xMinYMin meet"
   width="1256.250"
   height="873.750"
   viewBox="0 0 1256.250 873.750"
   version="1.1"
   id="svg29"
   sodipodi:docname="animated_two_spur_gears_1_2_Frame1.svg"
   inkscape:version="0.92.2 (5c3e80d, 2017-08-06)">
  <metadata
     id="metadata35">
    <rdf:RDF>
      <cc:Work
         rdf:about="">
        <dc:format>image/svg+xml</dc:format>
        <dc:type
           rdf:resource="http://purl.org/dc/dcmitype/StillImage" />
      </cc:Work>
    </rdf:RDF>
  </metadata>
  <defs
     id="defs33" />
  <sodipodi:namedview
     pagecolor="#ffffff"
     bordercolor="#666666"
     borderopacity="1"
     objecttolerance="10"
     gridtolerance="10"
     guidetolerance="10"
     inkscape:pageopacity="0"
     inkscape:pageshadow="2"
     inkscape:window-width="1920"
     inkscape:window-height="1027"
     id="namedview31"
     showgrid="false"
     inkscape:zoom="0.27010014"
     inkscape:cx="628.125"
     inkscape:cy="436.875"
     inkscape:window-x="1912"
     inkscape:window-y="181"
     inkscape:window-maximized="1"
     inkscape:current-layer="svg29" />
  <desc
     id="desc2">Matlab Figure Converted by PLOT2SVG written by Juerg Schwizer</desc>
  <g
     id="topgroup">
    <rect
       x="0"
       y="0"
       width="1256.25"
       height="873.75"
       id="rect4"
       style="fill:#ffffff;stroke:none" />
    <g
       id="ID000000">
      <clipPath
         id="ID000001">
        <rect
           x="-62.683998"
           y="-43.688"
           width="1381.6169"
           height="961.125"
           id="rect6" />
      </clipPath>
      <g
         id="g25">
        <g
           id="ID000002"
           clip-path="url(#ID000001)">
          <polygon
             points="404.681,463.86 421.597,461.685 435.79,458.275 450.101,451.788 464.276,439.925 464.292,438.4 464.297,436.875 464.292,435.35 464.276,433.825 450.101,421.962 435.79,415.475 421.597,412.065 404.681,409.89 403.862,405.446 402.918,401.027 401.851,396.637 400.661,392.277 414.958,382.978 426.266,373.748 436.345,361.694 443.969,344.856 443.322,343.475 442.665,342.099 441.998,340.727 441.322,339.36 423.404,334.822 407.696,335.186 393.429,338.272 377.244,343.652 374.578,340.004 371.811,336.432 368.944,332.939 365.981,329.528 374.827,314.946 381.011,301.724 384.862,286.491 384.424,268.012 383.242,267.049 382.053,266.094 380.857,265.147 379.655,264.209 361.542,267.894 347.548,275.038 336.033,284.009 323.785,295.879 319.8,293.748 315.757,291.731 311.659,289.828 307.509,288.04 309.153,271.064 308.987,256.468 305.847,241.073 297.435,224.614 295.952,224.259 294.466,223.914 292.978,223.58 291.488,223.256 276.768,234.436 267.259,246.944 260.777,260.023 254.892,276.031 250.378,275.841 245.859,275.777 241.341,275.841 236.827,276.031 230.942,260.023 224.459,246.944 214.951,234.436 200.231,223.256 198.741,223.58 197.252,223.914 195.767,224.259 194.283,224.614 185.872,241.073 182.732,256.468 182.566,271.064 184.21,288.04 180.06,289.828 175.962,291.731 171.918,293.748 167.933,295.879 155.686,284.009 144.171,275.038 130.177,267.894 112.064,264.209 110.862,265.147 109.666,266.094 108.477,267.049 107.294,268.012 106.857,286.491 110.708,301.724 116.891,314.946 125.738,329.528 122.775,332.939 119.908,336.432 117.141,340.004 114.474,343.652 98.29,338.272 84.023,335.186 68.315,334.822 50.397,339.36 49.721,340.727 49.054,342.099 48.397,343.475 47.75,344.856 55.374,361.694 65.452,373.748 76.76,382.978 91.058,392.277 89.868,396.637 88.801,401.027 87.857,405.446 87.038,409.89 70.122,412.065 55.928,415.475 41.618,421.962 27.443,433.825 27.427,435.35 27.422,436.875 27.427,438.4 27.443,439.925 41.618,451.788 55.928,458.275 70.122,461.685 87.038,463.86 87.857,468.304 88.801,472.723 89.868,477.113 91.058,481.473 76.76,490.772 65.452,500.002 55.374,512.056 47.75,528.894 48.397,530.275 49.054,531.651 49.721,533.023 50.397,534.39 68.315,538.928 84.023,538.564 98.29,535.478 114.474,530.098 117.141,533.746 119.908,537.318 122.775,540.811 125.738,544.222 116.891,558.804 110.708,572.026 106.857,587.259 107.294,605.738 108.477,606.701 109.666,607.656 110.862,608.603 112.064,609.541 130.177,605.856 144.171,598.712 155.686,589.741 167.933,577.871 171.918,580.002 175.962,582.019 180.06,583.922 184.21,585.71 182.566,602.686 182.732,617.282 185.872,632.677 194.283,649.136 195.767,649.491 197.252,649.836 198.741,650.17 200.231,650.494 214.951,639.314 224.459,626.806 230.942,613.727 236.827,597.719 241.341,597.909 245.859,597.973 250.378,597.909 254.892,597.719 260.777,613.727 267.259,626.806 276.768,639.314 291.488,650.494 292.978,650.17 294.466,649.836 295.952,649.491 297.435,649.136 305.847,632.677 308.987,617.282 309.153,602.686 307.509,585.71 311.659,583.922 315.757,582.019 319.8,580.002 323.785,577.871 336.033,589.741 347.548,598.712 361.542,605.856 379.655,609.541 380.857,608.603 382.053,607.656 383.242,606.701 384.424,605.738 384.862,587.259 381.011,572.026 374.827,558.804 365.981,544.222 368.944,540.811 371.811,537.318 374.578,533.746 377.244,530.098 393.429,535.478 407.696,538.564 423.404,538.928 441.322,534.39 441.998,533.023 442.665,531.651 443.322,530.275 443.969,528.894 436.345,512.056 426.266,500.002 414.958,490.772 400.661,481.473 401.851,477.113 402.918,472.723 403.862,468.304 "
             id="polygon9"
             style="fill:#ff3333;fill-opacity:1;stroke:#000000;stroke-width:3.20000017pt;stroke-dasharray:none;stroke-opacity:1" />
        </g>
        <g
           id="ID000003"
           clip-path="url(#ID000001)">
          <polyline
             points="325.720,455.103 326.199,452.856 326.616,450.596 326.969,448.326 327.258,446.046 327.556,442.840 327.765,438.019 327.771,437.447 327.773,436.875 327.771,436.303 327.765,435.731 327.556,430.910 327.258,427.704 326.969,425.424 326.616,423.154 326.199,420.894 325.720,418.647 325.177,416.415 324.572,414.198 323.905,412.000 323.177,409.821 322.054,406.803 320.150,402.368 319.908,401.850 319.661,401.334 319.411,400.819 319.158,400.307 316.877,396.054 315.218,393.294 313.968,391.366 312.665,389.474 311.310,387.619 309.902,385.802 308.445,384.026 306.938,382.292 305.383,380.600 303.781,378.953 301.460,376.721 297.821,373.551 297.378,373.190 296.932,372.832 296.484,372.477 296.033,372.125 292.132,369.283 289.440,367.516 287.478,366.321 285.483,365.182 283.456,364.099 281.401,363.073 279.317,362.105 277.207,361.196 275.072,360.347 272.914,359.558 269.854,358.554 265.200,357.277 264.644,357.144 264.087,357.015 263.529,356.889 262.970,356.768 258.223,355.899 255.031,355.476 252.744,355.251 250.452,355.090 248.157,354.993 245.859,354.961 243.562,354.993 241.266,355.090 238.974,355.251 236.688,355.476 233.496,355.899 228.749,356.768 228.190,356.889 227.632,357.015 227.075,357.144 226.518,357.277 221.864,358.554 218.805,359.558 216.647,360.347 214.512,361.196 212.402,362.105 210.318,363.073 208.262,364.099 206.236,365.182 204.241,366.321 202.278,367.516 199.586,369.283 195.686,372.125 195.235,372.477 194.787,372.832 194.341,373.190 193.897,373.551 190.259,376.721 187.937,378.953 186.336,380.600 184.781,382.292 183.274,384.026 181.816,385.802 180.409,387.619 179.053,389.474 177.750,391.366 176.501,393.294 174.842,396.054 172.561,400.307 172.307,400.819 172.057,401.334 171.811,401.850 171.568,402.368 169.665,406.803 168.542,409.821 167.814,412.000 167.147,414.198 166.542,416.415 165.999,418.647 165.519,420.894 165.103,423.154 164.750,425.424 164.460,427.704 164.163,430.910 163.953,435.731 163.947,436.303 163.945,436.875 163.947,437.447 163.953,438.019 164.163,442.840 164.460,446.046 164.750,448.326 165.103,450.596 165.519,452.856 165.999,455.103 166.542,457.335 167.147,459.552 167.814,461.750 168.542,463.929 169.665,466.947 171.568,471.382 171.811,471.900 172.057,472.416 172.307,472.931 172.561,473.443 174.842,477.696 176.501,480.456 177.750,482.384 179.053,484.276 180.409,486.131 181.816,487.948 183.274,489.724 184.781,491.458 186.336,493.150 187.937,494.797 190.259,497.029 193.897,500.199 194.341,500.560 194.787,500.918 195.235,501.273 195.686,501.625 199.586,504.467 202.278,506.234 204.241,507.429 206.236,508.568 208.262,509.651 210.318,510.677 212.402,511.645 214.512,512.554 216.647,513.403 218.805,514.192 221.864,515.196 226.518,516.473 227.075,516.606 227.632,516.735 228.190,516.861 228.749,516.982 233.496,517.851 236.688,518.274 238.974,518.499 241.266,518.660 243.562,518.757 245.859,518.789 248.157,518.757 250.452,518.660 252.744,518.499 255.031,518.274 258.223,517.851 262.970,516.982 263.529,516.861 264.087,516.735 264.644,516.606 265.200,516.473 269.854,515.196 272.914,514.192 275.072,513.403 277.207,512.554 279.317,511.645 281.401,510.677 283.456,509.651 285.483,508.568 287.478,507.429 289.440,506.234 292.132,504.467 296.033,501.625 296.484,501.273 296.932,500.918 297.378,500.560 297.821,500.199 301.460,497.029 303.781,494.797 305.383,493.150 306.938,491.458 308.445,489.724 309.902,487.948 311.310,486.131 312.665,484.276 313.968,482.384 315.218,480.456 316.877,477.696 319.158,473.443 319.411,472.931 319.661,472.416 319.908,471.900 320.150,471.382 322.054,466.947 323.177,463.929 323.905,461.750 324.572,459.552 325.177,457.335 325.720,455.103 "
             id="polyline12"
             style="fill:none;stroke:#000000;stroke-width:3.20000017pt;stroke-dasharray:none" />
          <g
             id="g14" />
        </g>
        <g
           id="ID000004"
           clip-path="url(#ID000001)">
          <polygon
             points="1171.35,426.996 1187.545,421.37 1200.922,415.441 1214.104,407.765 1226.679,394.971 1226.471,392.994 1226.253,391.018 1226.025,389.042 1225.788,387.068 1210.682,377.393 1196.122,372.843 1181.761,370.039 1164.72,368.158 1163.723,363.32 1162.657,358.496 1161.524,353.688 1160.324,348.896 1174.861,339.807 1186.583,331.05 1197.727,320.634 1207.14,305.362 1206.497,303.481 1205.844,301.603 1205.183,299.727 1204.513,297.855 1187.632,291.784 1172.425,290.588 1157.8,291.051 1140.768,293.008 1138.719,288.514 1136.606,284.048 1134.432,279.612 1132.195,275.208 1144.346,263.112 1153.826,251.966 1162.372,239.331 1168.15,222.348 1167.105,220.657 1166.051,218.97 1164.989,217.289 1163.919,215.614 1146.111,213.451 1131.019,215.669 1116.863,219.374 1100.694,225.073 1097.696,221.147 1094.643,217.263 1091.536,213.422 1088.375,209.626 1097.529,195.13 1104.291,182.154 1109.812,167.933 1111.666,150.091 1110.27,148.674 1108.868,147.265 1107.458,145.862 1106.042,144.467 1088.199,146.321 1073.979,151.842 1061.003,158.604 1046.507,167.758 1042.71,164.597 1038.87,161.49 1034.986,158.437 1031.06,155.439 1036.759,139.27 1040.464,125.114 1042.682,110.022 1040.519,92.214 1038.843,91.144 1037.162,90.082 1035.476,89.028 1033.785,87.983 1016.802,93.761 1004.167,102.307 993.021,111.787 980.925,123.937 976.521,121.701 972.085,119.526 967.619,117.414 963.124,115.365 965.082,98.333 965.545,83.708 964.348,68.5 958.277,51.62 956.405,50.95 954.53,50.288 952.652,49.636 950.77,48.993 935.499,58.406 925.083,69.549 916.325,81.272 907.237,95.809 902.445,94.609 897.636,93.476 892.813,92.41 887.975,91.413 886.093,74.372 883.29,60.01 878.74,45.451 869.065,30.344 867.09,30.107 865.115,29.88 863.139,29.662 861.161,29.454 848.367,42.029 840.692,55.211 834.763,68.588 829.137,84.783 824.198,84.679 819.258,84.645 814.318,84.679 809.379,84.783 803.753,68.588 797.824,55.211 790.148,42.029 777.354,29.454 775.377,29.662 773.4,29.88 771.425,30.107 769.451,30.344 759.776,45.451 755.226,60.01 752.422,74.372 750.541,91.413 745.703,92.41 740.879,93.476 736.071,94.609 731.279,95.809 722.19,81.272 713.433,69.549 703.016,58.406 687.745,48.993 685.864,49.636 683.985,50.288 682.11,50.95 680.238,51.62 674.167,68.5 672.971,83.708 673.433,98.333 675.391,115.365 670.896,117.414 666.431,119.526 661.995,121.701 657.59,123.937 645.495,111.787 634.349,102.307 621.713,93.761 604.731,87.983 603.039,89.028 601.353,90.082 599.672,91.144 597.996,92.214 595.834,110.022 598.052,125.114 601.757,139.27 607.456,155.439 603.529,158.437 599.646,161.49 595.805,164.597 592.009,167.758 577.512,158.604 564.536,151.842 550.316,146.321 532.473,144.467 531.057,145.862 529.648,147.265 528.245,148.674 526.85,150.091 528.704,167.933 534.224,182.154 540.986,195.13 550.141,209.626 546.98,213.422 543.873,217.263 540.82,221.147 537.822,225.073 521.652,219.374 507.497,215.669 492.405,213.451 474.597,215.614 473.527,217.289 472.465,218.97 471.411,220.657 470.365,222.348 476.144,239.331 484.69,251.966 494.17,263.112 506.32,275.208 504.084,279.612 501.909,284.048 499.797,288.514 497.748,293.008 480.715,291.051 466.09,290.588 450.883,291.784 434.003,297.855 433.332,299.727 432.671,301.603 432.019,303.481 431.376,305.362 440.789,320.634 451.932,331.05 463.655,339.807 478.192,348.896 476.991,353.688 475.858,358.496 474.793,363.32 473.795,368.158 456.754,370.039 442.393,372.843 427.834,377.393 412.727,387.068 412.49,389.042 412.263,391.018 412.045,392.994 411.837,394.971 424.411,407.765 437.594,415.441 450.971,421.37 467.166,426.996 467.062,431.935 467.027,436.875 467.062,441.815 467.166,446.754 450.971,452.38 437.594,458.309 424.411,465.985 411.837,478.779 412.045,480.756 412.263,482.732 412.49,484.708 412.727,486.682 427.834,496.357 442.393,500.907 456.754,503.711 473.795,505.592 474.793,510.43 475.858,515.254 476.991,520.062 478.192,524.854 463.655,533.943 451.932,542.7 440.789,553.116 431.376,568.388 432.019,570.269 432.671,572.147 433.332,574.023 434.003,575.895 450.883,581.966 466.09,583.162 480.715,582.699 497.748,580.742 499.797,585.236 501.909,589.702 504.084,594.138 506.32,598.542 494.17,610.638 484.69,621.784 476.144,634.419 470.365,651.402 471.411,653.093 472.465,654.78 473.527,656.461 474.597,658.136 492.405,660.299 507.497,658.081 521.652,654.376 537.822,648.677 540.82,652.603 543.873,656.487 546.98,660.328 550.141,664.124 540.986,678.62 534.224,691.596 528.704,705.817 526.85,723.659 528.245,725.076 529.648,726.485 531.057,727.888 532.473,729.283 550.316,727.429 564.536,721.908 577.512,715.146 592.009,705.992 595.805,709.153 599.646,712.26 603.529,715.313 607.456,718.311 601.757,734.48 598.052,748.636 595.834,763.728 597.996,781.536 599.672,782.606 601.353,783.668 603.039,784.722 604.731,785.767 621.713,779.989 634.349,771.443 645.495,761.963 657.59,749.813 661.995,752.049 666.431,754.224 670.896,756.336 675.391,758.385 673.433,775.417 672.971,790.042 674.167,805.25 680.238,822.13 682.11,822.8 683.985,823.462 685.864,824.114 687.745,824.757 703.016,815.344 713.433,804.201 722.19,792.478 731.279,777.941 736.071,779.141 740.879,780.274 745.703,781.34 750.541,782.337 752.422,799.378 755.226,813.74 759.776,828.299 769.451,843.406 771.425,843.643 773.4,843.87 775.377,844.088 777.354,844.296 790.148,831.721 797.824,818.539 803.753,805.162 809.379,788.967 814.318,789.071 819.258,789.105 824.198,789.071 829.137,788.967 834.763,805.162 840.692,818.539 848.367,831.721 861.161,844.296 863.139,844.088 865.115,843.87 867.09,843.643 869.065,843.406 878.74,828.299 883.29,813.74 886.093,799.378 887.975,782.337 892.813,781.34 897.636,780.274 902.445,779.141 907.237,777.941 916.325,792.478 925.083,804.201 935.499,815.344 950.77,824.757 952.652,824.114 954.53,823.462 956.405,822.8 958.277,822.13 964.348,805.25 965.545,790.042 965.082,775.417 963.124,758.385 967.619,756.336 972.085,754.224 976.521,752.049 980.925,749.813 993.021,761.963 1004.167,771.443 1016.802,779.989 1033.785,785.767 1035.476,784.722 1037.162,783.668 1038.843,782.606 1040.519,781.536 1042.682,763.728 1040.464,748.636 1036.759,734.48 1031.06,718.311 1034.986,715.313 1038.87,712.26 1042.71,709.153 1046.507,705.992 1061.003,715.146 1073.979,721.908 1088.199,727.429 1106.042,729.283 1107.458,727.888 1108.868,726.485 1110.27,725.076 1111.666,723.659 1109.812,705.817 1104.291,691.596 1097.529,678.62 1088.375,664.124 1091.536,660.328 1094.643,656.487 1097.696,652.603 1100.694,648.677 1116.863,654.376 1131.019,658.081 1146.111,660.299 1163.919,658.136 1164.989,656.461 1166.051,654.78 1167.105,653.093 1168.15,651.402 1162.372,634.419 1153.826,621.784 1144.346,610.638 1132.195,598.542 1134.432,594.138 1136.606,589.702 1138.719,585.236 1140.768,580.742 1157.8,582.699 1172.425,583.162 1187.632,581.966 1204.513,575.895 1205.183,574.023 1205.844,572.147 1206.497,570.269 1207.14,568.388 1197.727,553.116 1186.583,542.7 1174.861,533.943 1160.324,524.854 1161.524,520.062 1162.657,515.254 1163.723,510.43 1164.72,505.592 1181.761,503.711 1196.122,500.907 1210.682,496.357 1225.788,486.682 1226.025,484.708 1226.253,482.732 1226.471,480.756 1226.679,478.779 1214.104,465.985 1200.922,458.309 1187.545,452.38 1171.35,446.754 1171.454,441.815 1171.488,436.875 1171.454,431.935 "
             id="polygon17"
             style="fill:#1ab31a;fill-opacity:1;stroke:#000000;stroke-width:3.20000017pt;stroke-dasharray:none;stroke-opacity:1" />
        </g>
        <g
           id="ID000005"
           clip-path="url(#ID000001)">
          <polyline
             points="901.172,436.875 901.164,435.726 901.140,434.578 901.099,433.429 901.043,432.282 900.950,430.852 900.742,428.494 900.700,428.099 900.657,427.704 900.611,427.308 900.564,426.914 900.242,424.568 900.015,423.154 899.814,422.023 899.598,420.894 899.366,419.769 899.118,418.647 898.855,417.529 898.575,416.415 898.281,415.304 897.970,414.198 897.562,412.825 896.834,410.572 896.706,410.196 896.575,409.821 896.443,409.445 896.309,409.071 895.473,406.856 894.937,405.528 894.489,404.470 894.028,403.418 893.551,402.372 893.060,401.334 892.554,400.302 892.034,399.278 891.500,398.261 890.951,397.252 890.247,396.004 889.036,393.970 888.827,393.631 888.616,393.294 888.404,392.958 888.190,392.623 886.883,390.649 886.064,389.474 885.392,388.541 884.708,387.619 884.011,386.706 883.301,385.802 882.578,384.909 881.843,384.026 881.096,383.154 880.336,382.292 879.372,381.232 877.739,379.518 877.460,379.235 877.180,378.953 876.898,378.672 876.615,378.393 874.901,376.760 873.841,375.796 872.979,375.037 872.106,374.290 871.224,373.555 870.330,372.832 869.427,372.122 868.514,371.425 867.591,370.740 866.659,370.069 865.483,369.250 863.510,367.943 863.175,367.729 862.839,367.516 862.501,367.306 862.163,367.097 860.129,365.886 858.881,365.182 857.872,364.633 856.855,364.099 855.831,363.579 854.799,363.073 853.760,362.582 852.715,362.105 851.663,361.643 850.605,361.196 849.277,360.660 847.062,359.824 846.687,359.690 846.312,359.558 845.937,359.427 845.560,359.299 843.308,358.571 841.935,358.162 840.828,357.852 839.718,357.557 838.604,357.278 837.485,357.015 836.364,356.767 835.238,356.535 834.110,356.319 832.979,356.118 831.564,355.891 829.219,355.569 828.824,355.521 828.429,355.476 828.034,355.432 827.639,355.391 825.280,355.183 823.851,355.090 822.703,355.033 821.555,354.993 820.407,354.969 819.258,354.961 818.109,354.969 816.960,354.993 815.812,355.033 814.665,355.090 813.235,355.183 810.877,355.391 810.482,355.432 810.086,355.476 809.691,355.521 809.296,355.569 806.951,355.891 805.537,356.118 804.405,356.319 803.277,356.535 802.152,356.767 801.030,357.015 799.912,357.278 798.798,357.557 797.687,357.852 796.581,358.162 795.208,358.571 792.955,359.299 792.579,359.427 792.203,359.558 791.828,359.690 791.454,359.824 789.239,360.660 787.911,361.196 786.852,361.643 785.800,362.105 784.755,362.582 783.717,363.073 782.685,363.579 781.661,364.099 780.644,364.633 779.634,365.182 778.387,365.886 776.352,367.097 776.014,367.306 775.677,367.516 775.341,367.729 775.006,367.943 773.032,369.250 771.856,370.069 770.924,370.740 770.001,371.425 769.088,372.122 768.185,372.832 767.292,373.555 766.409,374.290 765.537,375.037 764.675,375.796 763.615,376.760 761.901,378.393 761.618,378.672 761.336,378.953 761.055,379.235 760.776,379.518 759.143,381.232 758.179,382.292 757.420,383.154 756.672,384.026 755.937,384.909 755.215,385.802 754.505,386.706 753.808,387.619 753.123,388.541 752.452,389.474 751.633,390.649 750.326,392.623 750.112,392.958 749.899,393.294 749.688,393.631 749.479,393.970 748.269,396.004 747.565,397.252 747.016,398.261 746.482,399.278 745.961,400.302 745.456,401.334 744.965,402.372 744.488,403.418 744.026,404.470 743.579,405.528 743.042,406.856 742.207,409.071 742.073,409.445 741.940,409.821 741.810,410.196 741.681,410.572 740.954,412.825 740.545,414.198 740.235,415.304 739.940,416.415 739.661,417.529 739.398,418.647 739.150,419.769 738.918,420.894 738.701,422.023 738.501,423.154 738.273,424.568 737.952,426.914 737.904,427.308 737.859,427.704 737.815,428.099 737.774,428.494 737.565,430.852 737.473,432.282 737.416,433.429 737.376,434.578 737.352,435.726 737.344,436.875 737.352,438.024 737.376,439.172 737.416,440.321 737.473,441.468 737.565,442.898 737.774,445.256 737.815,445.651 737.859,446.046 737.904,446.442 737.952,446.836 738.273,449.182 738.501,450.596 738.701,451.727 738.918,452.856 739.150,453.981 739.398,455.103 739.661,456.221 739.940,457.335 740.235,458.446 740.545,459.552 740.954,460.925 741.681,463.178 741.810,463.554 741.940,463.929 742.073,464.305 742.207,464.679 743.042,466.894 743.579,468.222 744.026,469.280 744.488,470.332 744.965,471.378 745.456,472.416 745.961,473.448 746.482,474.472 747.016,475.489 747.565,476.498 748.269,477.746 749.479,479.780 749.688,480.119 749.899,480.456 750.112,480.792 750.326,481.127 751.633,483.101 752.452,484.276 753.123,485.209 753.808,486.131 754.505,487.044 755.215,487.948 755.937,488.841 756.672,489.724 757.420,490.596 758.179,491.458 759.143,492.518 760.776,494.232 761.055,494.515 761.336,494.797 761.618,495.078 761.901,495.357 763.615,496.990 764.675,497.954 765.537,498.713 766.409,499.460 767.292,500.195 768.185,500.918 769.088,501.628 770.001,502.325 770.924,503.010 771.856,503.681 773.032,504.500 775.006,505.807 775.341,506.021 775.677,506.234 776.014,506.444 776.352,506.653 778.387,507.864 779.634,508.568 780.644,509.117 781.661,509.651 782.685,510.171 783.717,510.677 784.755,511.168 785.800,511.645 786.852,512.107 787.911,512.554 789.239,513.090 791.454,513.926 791.828,514.060 792.203,514.192 792.579,514.323 792.955,514.451 795.208,515.179 796.581,515.588 797.687,515.898 798.798,516.193 799.912,516.472 801.030,516.735 802.152,516.983 803.277,517.215 804.405,517.431 805.537,517.632 806.951,517.859 809.296,518.181 809.691,518.229 810.086,518.274 810.482,518.318 810.877,518.359 813.235,518.567 814.665,518.660 815.812,518.717 816.960,518.757 818.109,518.781 819.258,518.789 820.407,518.781 821.555,518.757 822.703,518.717 823.851,518.660 825.280,518.567 827.639,518.359 828.034,518.318 828.429,518.274 828.824,518.229 829.219,518.181 831.564,517.859 832.979,517.632 834.110,517.431 835.238,517.215 836.364,516.983 837.485,516.735 838.604,516.472 839.718,516.193 840.828,515.898 841.935,515.588 843.308,515.179 845.560,514.451 845.937,514.323 846.312,514.192 846.687,514.060 847.062,513.926 849.277,513.090 850.605,512.554 851.663,512.107 852.715,511.645 853.760,511.168 854.799,510.677 855.831,510.171 856.855,509.651 857.872,509.117 858.881,508.568 860.129,507.864 862.163,506.653 862.501,506.444 862.839,506.234 863.175,506.021 863.510,505.807 865.483,504.500 866.659,503.681 867.591,503.010 868.514,502.325 869.427,501.628 870.330,500.918 871.224,500.195 872.106,499.460 872.979,498.713 873.841,497.954 874.901,496.990 876.615,495.357 876.898,495.078 877.180,494.797 877.460,494.515 877.739,494.232 879.372,492.518 880.336,491.458 881.096,490.596 881.843,489.724 882.578,488.841 883.301,487.948 884.011,487.044 884.708,486.131 885.392,485.209 886.064,484.276 886.883,483.101 888.190,481.127 888.404,480.792 888.616,480.456 888.827,480.119 889.036,479.780 890.247,477.746 890.951,476.498 891.500,475.489 892.034,474.472 892.554,473.448 893.060,472.416 893.551,471.378 894.028,470.332 894.489,469.280 894.937,468.222 895.473,466.894 896.309,464.679 896.443,464.305 896.575,463.929 896.706,463.554 896.834,463.178 897.562,460.925 897.970,459.552 898.281,458.446 898.575,457.335 898.855,456.221 899.118,455.103 899.366,453.981 899.598,452.856 899.814,451.727 900.015,450.596 900.242,449.182 900.564,446.836 900.611,446.442 900.657,446.046 900.700,445.651 900.742,445.256 900.950,442.898 901.043,441.468 901.099,440.321 901.140,439.172 901.164,438.024 901.172,436.875 "
             id="polyline20"
             style="fill:none;stroke:#000000;stroke-width:3.20000017pt;stroke-dasharray:none" />
          <g
             id="g22" />
        </g>
      </g>
    </g>
  </g>
</svg>
