<?xml version="1.0" encoding="UTF-8" standalone="no"?>
<!-- Created with Inkscape (http://www.inkscape.org/) -->
<svg
   xmlns:dc="http://purl.org/dc/elements/1.1/"
   xmlns:cc="http://web.resource.org/cc/"
   xmlns:rdf="http://www.w3.org/1999/02/22-rdf-syntax-ns#"
   xmlns:svg="http://www.w3.org/2000/svg"
   xmlns="http://www.w3.org/2000/svg"
   xmlns:xlink="http://www.w3.org/1999/xlink"
   xmlns:sodipodi="http://sodipodi.sourceforge.net/DTD/sodipodi-0.dtd"
   xmlns:inkscape="http://www.inkscape.org/namespaces/inkscape"
   width="519"
   height="780"
   id="svg10853"
   sodipodi:version="0.32"
   inkscape:version="0.44.1"
   version="1.0"
   sodipodi:docbase="/home/david/pulley"
   sodipodi:docname="pulley1.svg">
  <defs
     id="defs10855" />
  <sodipodi:namedview
     id="base"
     pagecolor="#ffffff" />
  <metadata
     id="metadata10858">
    <rdf:RDF>
      <cc:Work
         rdf:about="">
        <dc:format>image/svg+xml</dc:format>
        <dc:type
           rdf:resource="http://purl.org/dc/dcmitype/StillImage" />
      </cc:Work>
    </rdf:RDF>
  </metadata>
  <g
     inkscape:label="Layer 1"
     inkscape:groupmode="layer"
     id="layer1">
    <path
       style="fill:black;stroke:none"
       d="M 210,615 L 300,615 L 350,760 L 160,760 L 210,615 z "
       id="path16243"
       sodipodi:nodetypes="ccccc" />
    <path
       sodipodi:type="arc"
       style="fill:#58c0ee;stroke:none"
       id="path12680"
       sodipodi:cx="255"
       sodipodi:cy="460"
       sodipodi:rx="70"
       sodipodi:ry="70"
       d="M 325 460 A 70 70 0 1 1  185,460 A 70 70 0 1 1  325 460 z" />
    <path
       sodipodi:type="arc"
       style="opacity:1;fill:#373535;stroke:none"
       id="path12678"
       sodipodi:cx="255"
       sodipodi:cy="460"
       sodipodi:rx="25"
       sodipodi:ry="25"
       d="M 280 460 A 25 25 0 1 1  230,460 A 25 25 0 1 1  280 460 z" />
    <path
       style="fill:none;stroke:red;stroke-width:10;stroke-linecap:butt"
       d="M 180,320 L 180,460 C 180,460 180,460 180,460 C 180,501 213,535 255,535 C 296,535 330,501 330,460 C 330,460 330,25 330,25"
       id="path14456"
       sodipodi:nodetypes="cccscc" />
    <path
       style="stroke:black;stroke-width:10;stroke-linecap:round"
       d="M 255,460 L 255,625"
       id="path12682" />
    <path
       style="fill:red;stroke:none"
       d="M 205,330 L 155,330 L 180,265 L 205,330 z "
       id="path15344" />
    <text
       xml:space="preserve"
       style="font-size:64px;text-align:center;text-anchor:middle;fill:red;font-family:Serif"
       x="180"
       y="254"
       id="text16237"><tspan
         sodipodi:role="line"
         id="tspan16239"
         x="180"
         y="254">W/2</tspan></text>
    <use
       x="0"
       y="0"
       xlink:href="#text16237"
       id="use16241"
       transform="translate(228,)"
       width="744.09448"
       height="1052" />
    <text
       xml:space="preserve"
       style="font-size:64px;text-align:center;text-anchor:middle;fill:white;font-family:Serif"
       x="253"
       y="710"
       id="text16245"><tspan
         sodipodi:role="line"
         id="tspan16247"
         x="253"
         y="710">W</tspan></text>
    <path
       style="fill:none;stroke:black;stroke-width:10;stroke-linecap:butt"
       d="M 20,25 L 495,25"
       id="path18271" />
    <path
       sodipodi:type="arc"
       style="fill:black;stroke:none"
       id="path22220"
       sodipodi:cx="330"
       sodipodi:cy="25"
       sodipodi:rx="15"
       sodipodi:ry="15"
       d="M 345 25 A 15 15 0 1 1  315,25 A 15 15 0 1 1  345 25 z" />
  </g>
</svg>
