<svg xmlns="http://www.w3.org/2000/svg" width="420" height="140" viewBox="0 0 420 140" role="img" aria-label="Series circuit diagram with 2 resistors labelled R1, R2, connected one after another in a single loop. An arrow on the return wire shows the current direction, flowing left to right."><title>Series circuit diagram with 2 resistors labelled R1, R2, connected one after another in a single loop. An arrow on the return wire shows the current direction, flowing left to right.</title><g><line x1="24" y1="24" x2="24" y2="116" stroke="#f2f4f8" stroke-width="2" /><line x1="396" y1="24" x2="396" y2="116" stroke="#f2f4f8" stroke-width="2" /><line x1="24" y1="116" x2="396" y2="116" stroke="#f2f4f8" stroke-width="2" /><line x1="24" y1="24" x2="94" y2="24" stroke="#f2f4f8" stroke-width="2" /><path d="M94,24 L97.83333333333333,16 L105.5,32 L113.16666666666667,16 L120.83333333333334,32 L128.5,16 L136.16666666666669,32 L140,24" fill="none" stroke="#4c8dff" stroke-width="2" /><line x1="140" y1="24" x2="210" y2="24" stroke="#f2f4f8" stroke-width="2" /><text x="117" y="14" fill="#f2f4f8" font-size="13" font-weight="700" text-anchor="middle"><tspan>R1</tspan></text><line x1="210" y1="24" x2="280" y2="24" stroke="#f2f4f8" stroke-width="2" /><line x1="210" y1="24" x2="280" y2="24" stroke="#f2f4f8" stroke-width="2" /><path d="M280,24 L283.8333333333333,16 L291.5,32 L299.1666666666667,16 L306.8333333333333,32 L314.5,16 L322.1666666666667,32 L326,24" fill="none" stroke="#4c8dff" stroke-width="2" /><line x1="326" y1="24" x2="396" y2="24" stroke="#f2f4f8" stroke-width="2" /><text x="303" y="14" fill="#f2f4f8" font-size="13" font-weight="700" text-anchor="middle"><tspan>R2</tspan></text><line x1="194" y1="116" x2="226" y2="116" stroke="#4c8dff" stroke-width="2.5" /><path d="M226,116 L219,120.2 L219,111.8 Z" fill="#4c8dff" /><text x="210" y="136" fill="#9aa3b2" font-size="11" text-anchor="middle"><tspan>current direction</tspan></text></g></svg>