<svg xmlns="http://www.w3.org/2000/svg" width="420" height="140" viewBox="0 0 420 140" role="img" aria-label="Series circuit diagram with 4 resistors labelled R1, R2, R3, R4, connected one after another in a single loop. A battery is shown on the left wire, and an arrow on the return wire shows the current direction, flowing left to right -- consistent with the battery's own polarity."><title>Series circuit diagram with 4 resistors labelled R1, R2, R3, R4, connected one after another in a single loop. A battery is shown on the left wire, and an arrow on the return wire shows the current direction, flowing left to right -- consistent with the battery's own polarity.</title><g><line x1="24" y1="24" x2="24" y2="60" stroke="#f2f4f8" stroke-width="2" /><line x1="24" y1="80" x2="24" y2="116" stroke="#f2f4f8" stroke-width="2" /><line x1="19" y1="60" x2="29" y2="60" stroke="#f2f4f8" stroke-width="3" /><text x="36" y="64" fill="#f2f4f8" font-size="11" font-weight="700" text-anchor="start"><tspan>-</tspan></text><line x1="15" y1="80" x2="33" y2="80" stroke="#f2f4f8" stroke-width="1.5" /><text x="36" y="84" fill="#f2f4f8" font-size="11" font-weight="700" text-anchor="start"><tspan>+</tspan></text><line x1="396" y1="24" x2="396" y2="116" stroke="#f2f4f8" stroke-width="2" /><line x1="24" y1="116" x2="396" y2="116" stroke="#f2f4f8" stroke-width="2" /><line x1="24" y1="24" x2="47.5" y2="24" stroke="#f2f4f8" stroke-width="2" /><path d="M47.5,24 L51.333333333333336,16 L59,32 L66.66666666666667,16 L74.33333333333334,32 L82,16 L89.66666666666667,32 L93.5,24" fill="none" stroke="#4c8dff" stroke-width="2" /><line x1="93.5" y1="24" x2="117" y2="24" stroke="#f2f4f8" stroke-width="2" /><text x="70.5" y="14" fill="#f2f4f8" font-size="13" font-weight="700" text-anchor="middle"><tspan>R1</tspan></text><line x1="117" y1="24" x2="140.5" y2="24" stroke="#f2f4f8" stroke-width="2" /><line x1="117" y1="24" x2="140.5" y2="24" stroke="#f2f4f8" stroke-width="2" /><path d="M140.5,24 L144.33333333333334,16 L152,32 L159.66666666666666,16 L167.33333333333334,32 L175,16 L182.66666666666669,32 L186.5,24" fill="none" stroke="#4c8dff" stroke-width="2" /><line x1="186.5" y1="24" x2="210" y2="24" stroke="#f2f4f8" stroke-width="2" /><text x="163.5" y="14" fill="#f2f4f8" font-size="13" font-weight="700" text-anchor="middle"><tspan>R2</tspan></text><line x1="210" y1="24" x2="233.5" y2="24" stroke="#f2f4f8" stroke-width="2" /><line x1="210" y1="24" x2="233.5" y2="24" stroke="#f2f4f8" stroke-width="2" /><path d="M233.5,24 L237.33333333333334,16 L245,32 L252.66666666666666,16 L260.3333333333333,32 L268,16 L275.6666666666667,32 L279.5,24" fill="none" stroke="#4c8dff" stroke-width="2" /><line x1="279.5" y1="24" x2="303" y2="24" stroke="#f2f4f8" stroke-width="2" /><text x="256.5" y="14" fill="#f2f4f8" font-size="13" font-weight="700" text-anchor="middle"><tspan>R3</tspan></text><line x1="303" y1="24" x2="326.5" y2="24" stroke="#f2f4f8" stroke-width="2" /><line x1="303" y1="24" x2="326.5" y2="24" stroke="#f2f4f8" stroke-width="2" /><path d="M326.5,24 L330.3333333333333,16 L338,32 L345.6666666666667,16 L353.3333333333333,32 L361,16 L368.6666666666667,32 L372.5,24" fill="none" stroke="#4c8dff" stroke-width="2" /><line x1="372.5" y1="24" x2="396" y2="24" stroke="#f2f4f8" stroke-width="2" /><text x="349.5" y="14" fill="#f2f4f8" font-size="13" font-weight="700" text-anchor="middle"><tspan>R4</tspan></text><line x1="194" y1="116" x2="226" y2="116" stroke="#4c8dff" stroke-width="2.5" /><path d="M226,116 L219,120.2 L219,111.8 Z" fill="#4c8dff" /><text x="210" y="136" fill="#9aa3b2" font-size="11" text-anchor="middle"><tspan>current direction</tspan></text></g></svg>