<svg xmlns="http://www.w3.org/2000/svg" width="440" height="180" viewBox="0 0 440 180" role="img" aria-label="Sine waveform, 3 cycles shown, oscillating symmetrically above and below a zero reference axis. A peak reference line marks the maximum height above the zero axis, and a peak-to-peak bracket spans from the peak line to the trough line. A separate RMS reference line sits between the zero axis and the peak line, at about 71 percent of the peak height. A period marker spans exactly one full cycle along the time axis."><title>Sine waveform, 3 cycles shown, oscillating symmetrically above and below a zero reference axis. A peak reference line marks the maximum height above the zero axis, and a peak-to-peak bracket spans from the peak line to the trough line. A separate RMS reference line sits between the zero axis and the peak line, at about 71 percent of the peak height. A period marker spans exactly one full cycle along the time axis.</title><g><line x1="20" y1="90" x2="420" y2="90" stroke="#9aa3b2" stroke-width="1.5" /><text x="422" y="94" fill="#9aa3b2" font-size="11" text-anchor="start"><tspan>t</tspan></text><text x="12" y="94" fill="#9aa3b2" font-size="11" text-anchor="end"><tspan>0</tspan></text><path d="M20.0,90.0 L25.6,78.1 L31.1,67.0 L36.7,57.5 L42.2,50.2 L47.8,45.6 L53.3,44.0 L58.9,45.6 L64.4,50.2 L70.0,57.5 L75.6,67.0 L81.1,78.1 L86.7,90.0 L92.2,101.9 L97.8,113.0 L103.3,122.5 L108.9,129.8 L114.4,134.4 L120.0,136.0 L125.6,134.4 L131.1,129.8 L136.7,122.5 L142.2,113.0 L147.8,101.9 L153.3,90.0 L158.9,78.1 L164.4,67.0 L170.0,57.5 L175.6,50.2 L181.1,45.6 L186.7,44.0 L192.2,45.6 L197.8,50.2 L203.3,57.5 L208.9,67.0 L214.4,78.1 L220.0,90.0 L225.6,101.9 L231.1,113.0 L236.7,122.5 L242.2,129.8 L247.8,134.4 L253.3,136.0 L258.9,134.4 L264.4,129.8 L270.0,122.5 L275.6,113.0 L281.1,101.9 L286.7,90.0 L292.2,78.1 L297.8,67.0 L303.3,57.5 L308.9,50.2 L314.4,45.6 L320.0,44.0 L325.6,45.6 L331.1,50.2 L336.7,57.5 L342.2,67.0 L347.8,78.1 L353.3,90.0 L358.9,101.9 L364.4,113.0 L370.0,122.5 L375.6,129.8 L381.1,134.4 L386.7,136.0 L392.2,134.4 L397.8,129.8 L403.3,122.5 L408.9,113.0 L414.4,101.9 L420.0,90.0" fill="none" stroke="#4c8dff" stroke-width="2.5" /><line x1="20" y1="44" x2="420" y2="44" stroke="#f2f4f8" stroke-width="1" /><line x1="20" y1="136" x2="420" y2="136" stroke="#f2f4f8" stroke-width="1" /><text x="422" y="48" fill="#f2f4f8" font-size="10" text-anchor="start"><tspan>peak</tspan></text><line x1="30" y1="44" x2="30" y2="136" stroke="#9aa3b2" stroke-width="1" /><line x1="26" y1="44" x2="34" y2="44" stroke="#9aa3b2" stroke-width="1" /><line x1="26" y1="136" x2="34" y2="136" stroke="#9aa3b2" stroke-width="1" /><text x="36" y="93" fill="#9aa3b2" font-size="9" text-anchor="start"><tspan>peak-to-peak</tspan></text><line x1="20" y1="57.473088065418814" x2="420" y2="57.473088065418814" stroke="#4cd07a" stroke-width="1.25" /><text x="422" y="61.473088065418814" fill="#4cd07a" font-size="10" text-anchor="start"><tspan>RMS</tspan></text><line x1="20" y1="166" x2="153.33333333333334" y2="166" stroke="#9aa3b2" stroke-width="1.25" /><line x1="20" y1="161" x2="20" y2="171" stroke="#9aa3b2" stroke-width="1.25" /><line x1="153.33333333333334" y1="161" x2="153.33333333333334" y2="171" stroke="#9aa3b2" stroke-width="1.25" /><text x="86.66666666666667" y="158" fill="#9aa3b2" font-size="10" text-anchor="middle"><tspan>T (period)</tspan></text></g></svg>